<?xml version="1.0" standalone="no"?>
<!DOCTYPE svg PUBLIC "-//W3C//DTD SVG 20010904//EN"
 "http://www.w3.org/TR/2001/REC-SVG-20010904/DTD/svg10.dtd">
<svg version="1.0" xmlns="http://www.w3.org/2000/svg"
 width="859.000000pt" height="859.000000pt" viewBox="0 0 859.000000 859.000000"
 preserveAspectRatio="xMidYMid meet">
<metadata>
Created by potrace 1.11, written by Peter Selinger 2001-2013
</metadata>
<g transform="translate(0.000000,859.000000) scale(0.100000,-0.100000)"
fill="#000000" stroke="none">
<path d="M1335 8550 c-45 -5 -114 -48 -673 -418 -343 -227 -632 -412 -642
-412 -20 0 -20 -34 -20 -3845 l0 -3845 3808 0 3807 0 487 528 487 527 1 3738
0 3738 -3602 -2 c-1982 -1 -3625 -5 -3653 -9z m383 -1497 l2 -293 -35 0 c-31
0 -35 3 -35 26 l0 26 -30 -26 c-58 -48 -137 -46 -195 6 -41 36 -55 79 -55 173
0 78 21 135 64 174 37 35 122 41 171 13 l35 -21 0 103 c0 56 3 106 7 110 4 4
21 6 38 4 l30 -3 3 -292z m190 225 c3 -33 0 -38 -22 -44 -49 -12 -74 13 -62
62 6 22 11 25 44 22 35 -3 37 -5 40 -40z m850 0 c3 -33 0 -38 -22 -44 -49 -12
-74 13 -62 62 6 22 11 25 44 22 35 -3 37 -5 40 -40z m-2248 6 c108 -63 103
-233 -9 -291 -32 -17 -61 -23 -107 -23 l-63 0 -3 -102 -3 -103 -37 -3 -38 -3
0 270 c0 206 3 271 13 275 6 3 57 4 112 3 80 -2 107 -6 135 -23z m1968 -66 l3
-47 52 -3 c51 -3 52 -4 55 -35 l3 -33 -56 0 -57 0 3 -123 c5 -146 12 -162 71
-153 37 6 38 5 38 -24 0 -48 -61 -65 -125 -35 -48 23 -55 50 -55 200 l0 134
-32 3 c-26 2 -34 8 -36 27 -4 26 12 41 46 41 19 0 22 5 22 43 0 51 6 59 40 55
22 -3 25 -8 28 -50z m-1730 -76 l3 -23 31 26 c25 21 39 25 77 23 45 -3 46 -3
46 -38 0 -35 0 -35 -44 -35 -37 0 -47 -5 -72 -34 -28 -34 -29 -38 -31 -165
l-3 -131 -37 -3 -38 -3 0 199 c0 109 3 202 7 206 4 4 19 6 33 4 17 -2 26 -10
28 -26z m474 3 c38 -29 58 -67 65 -126 9 -74 -2 -79 -150 -79 l-120 0 6 -37
c4 -24 17 -47 33 -62 25 -21 34 -23 93 -18 36 3 78 9 94 12 25 7 27 5 27 -24
0 -29 -4 -31 -57 -47 -112 -33 -218 1 -254 80 -28 62 -26 180 4 237 34 65 84
91 167 87 46 -2 73 -9 92 -23z m683 -180 l0 -200 -37 -3 -38 -3 0 199 c0 109
3 202 7 206 4 4 21 6 38 4 l30 -3 0 -200z m366 182 c34 -23 49 -61 31 -79 -6
-6 -19 -4 -35 6 -39 26 -84 36 -115 25 -53 -18 -80 -100 -61 -188 18 -85 84
-115 157 -71 48 30 64 26 60 -12 -2 -28 -10 -37 -48 -55 -98 -50 -210 -10
-241 86 -19 58 -15 171 9 217 35 69 74 92 158 93 37 1 60 -5 85 -22z m484
-182 l0 -200 -37 -3 -38 -3 0 199 c0 109 3 202 7 206 4 4 21 6 38 4 l30 -3 0
-200z m390 185 c79 -38 114 -151 81 -262 -27 -94 -108 -146 -208 -135 -108 13
-160 78 -161 202 0 98 29 158 92 192 57 30 138 31 196 3z m255 -8 l5 -24 29
23 c39 30 125 38 161 15 57 -37 65 -67 65 -238 l0 -158 -34 0 -34 0 -3 143
c-5 167 -16 197 -72 197 -34 0 -74 -22 -92 -49 -5 -9 -12 -77 -15 -151 l-5
-135 -37 -3 -38 -3 0 199 c0 109 3 202 7 206 16 16 57 1 63 -22z m775 16 c14
-6 25 -15 25 -19 0 -4 2 -13 5 -21 3 -7 1 -19 -4 -26 -7 -12 -14 -11 -39 2
-50 26 -104 20 -122 -14 -17 -32 1 -51 75 -86 85 -38 105 -62 105 -124 -1 -78
-48 -114 -149 -114 -83 -1 -121 19 -121 64 0 34 9 36 51 14 47 -24 109 -21
131 6 33 41 18 63 -70 100 -87 37 -119 94 -92 164 21 56 135 86 205 54z m386
-11 c34 -23 49 -61 31 -79 -6 -6 -19 -4 -35 6 -39 26 -84 36 -115 25 -53 -18
-80 -100 -61 -188 18 -85 84 -115 157 -71 48 30 64 26 60 -12 -2 -28 -10 -37
-48 -55 -98 -50 -210 -10 -241 86 -19 58 -15 171 9 217 35 69 74 92 158 93 37
1 60 -5 85 -22z m374 3 c79 -38 114 -151 81 -262 -27 -94 -108 -146 -208 -135
-108 13 -160 78 -161 202 0 98 29 158 92 192 57 30 138 31 196 3z m253 -8 l3
-23 31 26 c25 21 39 25 77 23 45 -3 46 -3 46 -38 0 -35 0 -35 -44 -35 -37 0
-47 -5 -72 -34 -28 -34 -29 -38 -31 -165 l-3 -131 -37 -3 -38 -3 0 199 c0 109
3 202 7 206 4 4 19 6 33 4 17 -2 26 -10 28 -26z m484 3 c38 -29 58 -67 65
-126 9 -74 -2 -79 -150 -79 l-120 0 6 -37 c4 -24 17 -47 33 -62 25 -21 34 -23
93 -18 36 3 78 9 94 12 25 7 27 5 27 -24 0 -29 -4 -31 -57 -47 -112 -33 -218
1 -254 80 -28 62 -26 180 4 237 34 65 84 91 167 87 46 -2 73 -9 92 -23z m426
-3 l3 -22 31 22 c19 13 51 23 83 26 47 4 55 1 89 -28 l37 -33 22 20 c34 31 62
43 104 43 51 0 83 -18 107 -60 19 -31 21 -52 21 -190 l0 -155 -37 -3 -37 -3
-3 149 c-3 131 -5 153 -22 171 -28 30 -69 27 -111 -10 l-35 -31 0 -139 0 -139
-34 0 -33 0 -5 144 c-3 114 -8 149 -21 170 -25 38 -73 36 -115 -5 l-31 -31 -3
-136 -3 -137 -37 -3 -38 -3 0 199 c0 109 3 202 7 206 4 4 19 6 33 4 17 -2 26
-10 28 -26z m842 13 c52 -27 60 -57 60 -235 l0 -160 -30 0 c-17 0 -33 6 -36
14 -5 12 -13 11 -51 -6 -82 -36 -172 -5 -192 68 -11 39 0 87 25 115 22 25 105
49 166 49 53 0 52 -1 38 51 -17 60 -71 74 -149 38 -50 -22 -71 -19 -71 9 0 24
29 51 66 62 48 14 143 11 174 -5z m248 -13 l3 -22 43 25 c84 49 179 24 216
-58 27 -58 27 -186 1 -243 -39 -85 -142 -119 -213 -70 l-37 25 -3 -92 -3 -92
-37 -3 -38 -3 0 274 c0 150 3 277 7 281 4 4 19 6 33 4 17 -2 26 -10 28 -26z
m567 16 c19 -9 25 -19 25 -45 0 -37 -4 -39 -40 -18 -31 18 -92 19 -108 3 -7
-7 -12 -25 -12 -40 0 -25 8 -32 75 -64 87 -41 105 -62 105 -122 0 -36 -6 -50
-32 -76 -71 -71 -238 -53 -238 24 0 34 9 36 51 14 42 -21 105 -21 129 1 41 37
21 68 -68 105 -87 37 -119 94 -92 164 21 56 135 86 205 54z m-4285 -1678 l0
-1040 -1145 0 -1145 0 0 1033 c0 569 3 1037 7 1040 3 4 519 7 1145 7 l1138 0
0 -1040z m1080 -1270 c0 -18 7 -20 65 -20 63 0 65 -1 65 -25 0 -23 4 -25 45
-25 38 0 45 -3 45 -20 0 -15 7 -20 25 -20 18 0 25 -5 25 -20 0 -13 7 -20 20
-20 15 0 20 -7 20 -25 0 -18 5 -25 20 -25 13 0 20 -7 20 -20 0 -15 7 -20 25
-20 20 0 25 -5 25 -25 0 -18 5 -25 20 -25 13 0 20 -7 20 -20 0 -15 7 -20 25
-20 18 0 25 -5 25 -20 0 -13 7 -20 20 -20 15 0 20 -7 20 -25 0 -18 5 -25 20
-25 13 0 20 -7 20 -20 0 -15 7 -20 25 -20 24 0 25 -2 25 -65 0 -58 2 -65 20
-65 20 0 20 -7 20 -420 0 -413 0 -420 -20 -420 -18 0 -20 -7 -20 -65 0 -63 -1
-65 -25 -65 -21 0 -25 -5 -25 -30 l0 -30 190 0 190 0 0 -1040 0 -1040 -1145 0
-1145 0 0 235 c0 150 -4 235 -10 235 -5 0 -10 -9 -10 -20 0 -18 -7 -20 -65
-20 -63 0 -65 -1 -65 -25 0 -25 -1 -25 -90 -25 -83 0 -90 -1 -90 -20 0 -19 -7
-20 -175 -20 -168 0 -175 1 -175 20 0 18 -7 20 -65 20 -63 0 -65 1 -65 25 0
24 -2 25 -65 25 -58 0 -65 2 -65 20 0 17 -7 20 -45 20 -38 0 -45 3 -45 20 0
15 -7 20 -25 20 -20 0 -25 5 -25 25 0 18 -5 25 -20 25 -13 0 -20 7 -20 20 0
13 -7 20 -20 20 -15 0 -20 7 -20 25 0 20 -5 25 -25 25 -24 0 -25 2 -25 65 0
58 -2 65 -20 65 -19 0 -20 7 -20 130 0 123 1 130 20 130 18 0 20 7 20 65 0 63
1 65 25 65 18 0 25 5 25 20 0 20 7 20 580 20 l580 0 0 95 0 95 -540 0 -540 0
0 40 c0 36 3 40 25 40 23 0 25 4 25 45 0 38 3 45 20 45 18 0 20 7 20 65 0 63
1 65 25 65 l25 0 0 240 c0 233 1 240 20 240 18 0 20 7 20 70 0 63 2 70 20 70
17 0 20 7 20 40 0 36 3 40 25 40 20 0 25 5 25 25 0 18 5 25 20 25 13 0 20 7
20 20 0 15 7 20 25 20 20 0 25 5 25 25 0 18 5 25 20 25 13 0 20 7 20 20 0 17
7 20 45 20 38 0 45 3 45 20 0 18 7 20 65 20 63 0 65 1 65 25 0 25 1 25 90 25
83 0 90 1 90 20 0 18 7 20 65 20 63 0 65 1 65 25 0 20 5 25 25 25 l25 0 0
-505 0 -505 50 0 50 0 0 165 0 165 39 0 39 0 4 402 c2 310 6 402 16 406 7 2
12 21 12 48 0 40 2 44 25 44 18 0 25 5 25 20 0 13 7 20 20 20 13 0 20 7 20 20
0 13 7 20 20 20 17 0 20 7 20 45 0 41 2 45 25 45 18 0 25 5 25 20 0 13 7 20
20 20 16 0 20 7 20 35 l0 35 110 2 c61 1 152 2 203 2 l92 1 3 -592 2 -593 90
0 90 0 0 685 0 685 -207 1 c-115 1 -198 4 -185 6 14 3 22 12 22 24 0 16 7 19
45 19 41 0 45 2 45 25 0 18 5 25 20 25 13 0 20 7 20 20 0 17 7 20 45 20 38 0
45 3 45 20 0 18 7 20 65 20 63 0 65 1 65 25 0 25 1 25 90 25 83 0 90 1 90 20
0 19 7 20 130 20 123 0 130 -1 130 -20z"/>
<path d="M1512 7099 c-37 -14 -62 -67 -62 -132 0 -133 73 -188 155 -116 35 31
35 32 35 115 0 82 0 83 -32 107 -40 29 -67 37 -96 26z"/>
<path d="M330 7135 l0 -105 39 0 c85 0 131 39 131 109 -1 73 -34 101 -119 101
l-51 0 0 -105z"/>
<path d="M1064 7092 c-25 -19 -44 -53 -44 -76 0 -13 15 -16 95 -16 l95 0 0 26
c0 38 -50 84 -92 84 -18 0 -43 -8 -54 -18z"/>
<path d="M3001 7098 c-41 -21 -63 -70 -62 -137 0 -98 33 -141 106 -141 46 0
71 14 89 48 34 69 27 166 -16 209 -29 29 -84 38 -117 21z"/>
<path d="M4791 7098 c-41 -21 -63 -70 -62 -137 0 -98 33 -141 106 -141 46 0
71 14 89 48 34 69 27 166 -16 209 -29 29 -84 38 -117 21z"/>
<path d="M5514 7092 c-25 -19 -44 -53 -44 -76 0 -13 15 -16 95 -16 l95 0 0 26
c0 38 -50 84 -92 84 -18 0 -43 -8 -54 -18z"/>
<path d="M6799 6925 c-71 -38 -17 -133 59 -104 45 17 72 49 72 86 l0 33 -52 0
c-29 -1 -65 -7 -79 -15z"/>
<path d="M7280 7098 c-14 -5 -37 -21 -52 -35 -26 -25 -28 -33 -28 -104 0 -76
1 -77 35 -108 81 -71 155 -17 155 114 0 102 -45 157 -110 133z"/>
<path d="M1367 6333 c-4 -3 -7 -390 -7 -860 l0 -853 965 0 965 0 -2 858 -3
857 -956 3 c-525 1 -959 -1 -962 -5z"/>
<path d="M3400 2330 l0 -70 270 0 270 0 0 -25 c0 -23 -4 -25 -45 -25 -38 0
-45 -3 -45 -20 0 -17 -7 -20 -45 -20 -41 0 -45 -2 -45 -25 0 -18 -5 -25 -20
-25 -17 0 -20 -7 -20 -45 0 -41 -2 -45 -25 -45 -24 0 -25 -3 -25 -60 l0 -60
-135 0 -135 0 0 -95 0 -95 90 0 90 0 0 -40 c0 -33 -3 -40 -20 -40 -15 0 -20
-7 -20 -25 0 -18 -5 -25 -20 -25 -13 0 -20 -7 -20 -20 0 -15 -7 -20 -25 -20
-18 0 -25 -5 -25 -20 0 -13 -7 -20 -19 -20 -27 0 -29 -31 -37 -462 l-6 -358
966 0 966 0 0 855 0 855 -960 0 -960 0 0 -70z m1370 -95 c0 -24 -2 -25 -65
-25 -58 0 -65 -2 -65 -20 0 -19 -7 -20 -255 -20 l-255 0 0 45 0 45 320 0 320
0 0 -25z"/>
</g>
</svg>
